<?xml version="1.0" encoding="utf-8"?>
<!-- Uploaded to: SVG Repo, www.svgrepo.com, Generator: SVG Repo Mixer Tools -->
<svg width="800px" height="800px" viewBox="0 -4 36.809 36.809" xmlns="http://www.w3.org/2000/svg">
  <g id="Lager_85" data-name="Lager 85" transform="translate(0.809 0.809)">
    <path id="Path_93" data-name="Path 93" d="M26,10H20.037v0c-.012,0-.024,0-.037,0H16.791l6.637-6.637a1.954,1.954,0,0,0,0-2.763L23.4.572a1.954,1.954,0,0,0-2.763,0L10.8,10.407a1.854,1.854,0,0,0-.2.165l-.01.01-.008.008-.01.01a2.125,2.125,0,0,0-.177.217c-.017.023-.038.043-.054.067A1.938,1.938,0,0,0,10,11.991v.018a1.94,1.94,0,0,0,.34,1.107c.015.024.036.043.053.066a2.019,2.019,0,0,0,.178.218l.011.01.007.007.01.011a1.854,1.854,0,0,0,.2.165l9.834,9.835a1.954,1.954,0,0,0,2.763,0l.028-.028a1.954,1.954,0,0,0,0-2.763L16.791,14H20c.013,0,.025,0,.037,0v0H26a6.007,6.007,0,0,1,6,6v5.994a2,2,0,1,0,4,0V20A10,10,0,0,0,26,10Z" fill="#161615"/>
    <g id="Group_38" data-name="Group 38">
      <rect id="Rectangle_43" data-name="Rectangle 43" width="18.141" height="3.947" rx="1.954" transform="translate(-0.809 12.019) rotate(-45)" fill="#161615"/>
    </g>
    <g id="Group_39" data-name="Group 39">
      <rect id="Rectangle_44" data-name="Rectangle 44" width="3.947" height="18.141" rx="1.954" transform="translate(-0.809 11.981) rotate(-45)" fill="#161615"/>
    </g>
  </g>
</svg>