<svg xmlns="http://www.w3.org/2000/svg" data-name="Layer 1" viewBox="0 0 32 32" id="indian-man"><path fill="#3f6db4" d="M30 22.512v8.98H2v-8.98a3.996 3.996 0 0 1 2.9-3.85l11.1-3.17.57.16 10.53 3.01a3.996 3.996 0 0 1 2.9 3.85Z"></path><path fill="#1f53a4" d="m5.9 18.662 10.604-3.028-.504-.142-11.1 3.17a3.996 3.996 0 0 0-2.9 3.85v8.98h1v-8.98a3.996 3.996 0 0 1 2.9-3.85zm10.6-.86v13.69h-1v-13.69a.495.495 0 0 1 .5-.5.308.308 0 0 1 .1.01.495.495 0 0 1 .4.49z"></path><path fill="#f7991d" d="M21.72 5.862c-.02.14-.04.27-.07.41-.07.45-.14.89-.22 1.34l-.24 1.44c-.06.38-.13.75-.19 1.13h-.57a9.116 9.116 0 0 0-1.94-2.43c-.16-.14-.31-.26-.45-.37-.08-.06-.16-.12-.24-.17a3.113 3.113 0 0 0-.38-.25 2.91 2.91 0 0 0-.33-.2.219.219 0 0 0-.08-.05 6.44 6.44 0 0 0-.79-.39 2.035 2.035 0 0 0-.26-.11 2.305 2.305 0 0 0-.28-.1.076.076 0 0 0-.05-.02 3.25 3.25 0 0 0-.17-.06 4.445 4.445 0 0 0-.52-.15c-.09.07-.18.15-.27.23a.175.175 0 0 1-.05.04l-.06.06a2.33 2.33 0 0 0-.28.26c-.02.01-.04.03-.04.04a2.129 2.129 0 0 0-.21.22.21.21 0 0 0-.06.08h-.01a.053.053 0 0 0-.03.04.906.906 0 0 0-.09.1l-.07.07-.24.27c-.08.08-.15.18-.23.27a3.91 3.91 0 0 0-.27.33c-.12.15-.23.3-.34.45a3 3 0 0 0-.25.37 4.318 4.318 0 0 0-.31.48 2.382 2.382 0 0 0-.13.21l-.12.21c-.11.18-.21.38-.31.57H11c-.05-.27-.09-.54-.14-.81-.02-.14-.05-.27-.07-.41-.06-.34-.11-.68-.17-1.02-.08-.49-.16-.98-.25-1.47a.276.276 0 0 0-.01-.09 3.664 3.664 0 0 1 .94-3.51 10.177 10.177 0 0 1 2.15-1.3 6.646 6.646 0 0 1 2.39-1.06 2.29 2.29 0 0 1 .9.13 2.877 2.877 0 0 1 .37.15c.27.12.53.28.79.42.14.09.28.17.41.24.1.05.19.11.29.16h.02c.23.12.46.25.68.39.03.02.07.04.1.06h.01c.16.09.31.19.46.29h.01a3.65 3.65 0 0 1 .45.32 3.092 3.092 0 0 1 1.39 3.19Z"></path><path fill="#f7991d" d="M20.31 2.662v.01a.031.031 0 0 0-.02.01.475.475 0 0 1-.24.2.415.415 0 0 0-.1.04 12.323 12.323 0 0 0-1.19.48.031.031 0 0 0-.02.01 2.287 2.287 0 0 0-.28.13c-.18.08-.37.18-.55.27a4.637 4.637 0 0 0-.43.24l-.12.06c-.22.13-.43.27-.65.42-.25.17-.49.34-.73.51h-.01c-.2.15-.39.3-.57.44a.432.432 0 0 0-.07.06c-.02.02-.05.04-.07.06-.11.09-.22.18-.32.28-.09.07-.18.15-.27.23a.175.175 0 0 1-.05.04l-.06.06a.965.965 0 0 0-.15.14.49.49 0 0 0-.13.12c-.02.01-.03.02-.03.04h-.01a.271.271 0 0 0-.07.08.459.459 0 0 1-.07.07c-.04.05-.09.1-.13.15l-.04.04a.906.906 0 0 0-.09.1l-.07.07-.24.27c-.08.08-.15.18-.23.27a3.91 3.91 0 0 0-.27.33c-.12.15-.23.3-.34.45a3 3 0 0 0-.25.37 4.318 4.318 0 0 0-.31.48 2.382 2.382 0 0 0-.13.21l-.12.21c-.11.18-.21.38-.31.57H11c-.05-.27-.09-.54-.14-.81-.02-.14-.05-.27-.07-.41-.06-.34-.11-.68-.17-1.02-.08-.49-.16-.98-.25-1.47a.276.276 0 0 0-.01-.09 3.664 3.664 0 0 1 .94-3.51 10.177 10.177 0 0 1 2.15-1.3 6.646 6.646 0 0 1 2.39-1.06 2.29 2.29 0 0 1 .9.13 2.877 2.877 0 0 1 .37.15c.27.12.53.28.79.42.14.09.28.17.41.24.1.05.19.11.29.16.23.13.46.25.69.39h.01c.03.02.07.04.1.06h.01c.16.09.31.19.46.29h.01c.15.1.29.2.43.31Z"></path><path fill="#e37626" d="M11.86 9.372c-.02-.14-.05-.27-.07-.41-.06-.34-.11-.68-.17-1.02-.08-.49-.16-.98-.25-1.47a.276.276 0 0 0-.01-.09 3.664 3.664 0 0 1 .94-3.51 10.177 10.177 0 0 1 2.15-1.3 9.219 9.219 0 0 1 2.055-.988 2.196 2.196 0 0 0-.665-.072 6.646 6.646 0 0 0-2.39 1.06 10.177 10.177 0 0 0-2.15 1.3 3.664 3.664 0 0 0-.94 3.51.276.276 0 0 1 .01.09c.09.49.17.98.25 1.47.06.34.11.68.17 1.02.02.14.05.27.07.41.05.27.09.54.14.81h.57c.1-.19.2-.39.31-.57l.016-.029-.036-.21Z"></path><path fill="#ffdaa7" d="M21 10.982a8.237 8.237 0 0 1-5 7.53 8.237 8.237 0 0 1-5-7.53v-.8a15.884 15.884 0 0 1 3.33-4.44c.15-.14.3-.27.45-.4l.19.02a9.275 9.275 0 0 1 6.03 4.82Z"></path><path fill="#fdc475" d="M13.82 16.102a7.184 7.184 0 0 1-1.554-3.056 6.534 6.534 0 0 1-.146-1.234 3.282 3.282 0 0 1-.12-1.63 6.225 6.225 0 0 1 1.234-2.044 16.036 16.036 0 0 1 2.096-2.396c.077-.072.154-.137.231-.205-.215-.07-.42-.13-.591-.175l-.19-.02c-.15.13-.3.26-.45.4a15.883 15.883 0 0 0-3.33 4.44v.8a8.237 8.237 0 0 0 5 7.53c.172-.073.334-.165.5-.25a8.128 8.128 0 0 1-2.68-2.16Z"></path><path fill="#fdd402" d="M21.23 16.982a.534.534 0 0 1-.02.25 5.864 5.864 0 0 1-5.21 3.62 5.64 5.64 0 0 1-5.21-3.62.534.534 0 0 1-.02-.25l.86-.24.77-.22 3.6-1.03 3.61 1.03.76.22Z"></path><path fill="#e37626" d="M20.32 2.672h-.01a.031.031 0 0 0-.02.01 15.466 15.466 0 0 0-2.38 1.13 4.637 4.637 0 0 0-.43.24c-.26.16-.52.32-.77.48-.25.17-.49.34-.73.51h-.01c-.2.15-.39.3-.57.44a.432.432 0 0 0-.07.06c-.02.02-.05.04-.07.06-.11.09-.22.18-.32.28-.09.07-.18.15-.27.23a.175.175 0 0 1-.05.04l-.06.06a.965.965 0 0 0-.15.14l-.16.16a.603.603 0 0 1-.08.08.459.459 0 0 1-.07.07.461.461 0 0 1-.07.07c-.02.02-.04.05-.07.08-.01.01-.03.03-.03.04a23.377 23.377 0 0 0-2.78 3.33H11c-.05-.27-.09-.54-.14-.81-.02-.14-.05-.27-.07-.41a28.247 28.247 0 0 1 3.2-3.59 19.803 19.803 0 0 1 5.3-3.37h.01c.03.02.07.04.1.06h.01c.16.09.31.19.46.29h.01c.15.1.29.2.43.31Z"></path><path fill="#e37626" d="M21.19 9.052c-.06.38-.13.75-.19 1.13h-.18a15.852 15.852 0 0 0-2.33-2.43c-.16-.14-.31-.26-.45-.37-.08-.06-.16-.12-.24-.17a3.113 3.113 0 0 0-.38-.25 2.91 2.91 0 0 0-.33-.2.219.219 0 0 0-.08-.05 6.44 6.44 0 0 0-.79-.39 2.035 2.035 0 0 0-.26-.11 2.305 2.305 0 0 0-.28-.1.076.076 0 0 0-.05-.02 3.25 3.25 0 0 0-.17-.06 4.445 4.445 0 0 0-.52-.15l-.09-.03a.498.498 0 0 1-.36-.61.483.483 0 0 1 .6-.36 9.63 9.63 0 0 1 3.56 1.71 17.449 17.449 0 0 1 2.54 2.46zm.46-2.78c-.07.45-.14.89-.22 1.34a13.084 13.084 0 0 0-2.28-2.45 8.421 8.421 0 0 0-2-1.14.502.502 0 0 1 .38-.93 9.857 9.857 0 0 1 2.23 1.28 13.052 13.052 0 0 1 1.89 1.9z"></path><path fill="#1f53a4" d="M8 28.492v3H7v-3a.5.5 0 0 1 1 0zm17 0v3h-1v-3a.5.5 0 0 1 1 0z"></path><path fill="#fbbf13" d="M19.61 16.522c-.13.2-.28.39-.43.58a8.139 8.139 0 0 1-3.18 2.41 8.139 8.139 0 0 1-3.18-2.41c-.15-.19-.29-.38-.42-.58l3.6-1.03Z"></path><path fill="#58565d" d="M20.98 11.522c-.01.22-.04.43-.07.64a6.491 6.491 0 0 1-.26 1.16 7.769 7.769 0 0 1-.33.92 8.003 8.003 0 0 1-1.14 1.86 8.139 8.139 0 0 1-3.18 2.41 8.139 8.139 0 0 1-3.18-2.41 7.998 7.998 0 0 1-1.14-1.88l-.01-.01a8.526 8.526 0 0 1-.32-.89 7.244 7.244 0 0 1-.26-1.16c-.03-.21-.06-.42-.07-.64a1.725 1.725 0 0 0 1.1.29 1.405 1.405 0 0 0 .61-.28 2.838 2.838 0 0 1 .68-.38 3.396 3.396 0 0 1 2.59.23 3.396 3.396 0 0 1 2.59-.23 2.838 2.838 0 0 1 .68.38 1.405 1.405 0 0 0 .61.28 1.74 1.74 0 0 0 1.1-.29Z"></path><path fill="#3c3b41" d="M17 11.382a4.702 4.702 0 0 1 1.157-.338 3.374 3.374 0 0 0-1.657.16c.165.053.328.103.5.178zm3.88.43c.022.003.047-.007.07-.005.009-.095.024-.189.03-.285a2.168 2.168 0 0 1-.424.184.92.92 0 0 0 .324.106zm-7.06 4.29a7.998 7.998 0 0 1-1.14-1.88l-.01-.01a8.06 8.06 0 0 1-.62-2.405 1.744 1.744 0 0 1-1.03-.285 8.042 8.042 0 0 0 .65 2.69l.01.01a7.998 7.998 0 0 0 1.14 1.88 8.139 8.139 0 0 0 3.18 2.41c.172-.073.334-.165.5-.25a8.128 8.128 0 0 1-2.68-2.16zm-.7-4.29a1.405 1.405 0 0 0 .61-.28 2.838 2.838 0 0 1 .68-.38 2.44 2.44 0 0 1 .433-.107 2.767 2.767 0 0 0-1.433.107 2.838 2.838 0 0 0-.68.38c-.106.068-.195.127-.287.175a1.523 1.523 0 0 0 .677.105z"></path><path fill="#e37626" d="M18.61 1.612a16.751 16.751 0 0 0-4.89 2.58 15.589 15.589 0 0 0-3.1 3.75c-.08-.49-.16-.98-.25-1.47v-.01a17.51 17.51 0 0 1 2.7-3.03 16.572 16.572 0 0 1 4.4-2.46c.29.16.57.33.84.48.1.05.2.11.3.16Z"></path><path fill="#2c2b2d" d="M20.91 12.162a6.491 6.491 0 0 1-.26 1.16 3.561 3.561 0 0 1-1.72 1.05 3.668 3.668 0 0 1-2.93-.61 3.516 3.516 0 0 1-4.65-.44 7.244 7.244 0 0 1-.26-1.16 2.007 2.007 0 0 0 1.1.18c.61-.09.83-.47 1.4-.69a2.968 2.968 0 0 1 2.41.31 2.968 2.968 0 0 1 2.41-.31c.57.22.79.6 1.4.69a2.007 2.007 0 0 0 1.1-.18Z"></path><path fill="#3c3b41" d="M18.927 13.763a3.525 3.525 0 0 0 2.067-1.492 3.282 3.282 0 0 0 .41-.998 2.285 2.285 0 0 1-1.594.465c-.607-.09-.835-.472-1.396-.687a2.983 2.983 0 0 0-2.414.305 2.983 2.983 0 0 0-2.414-.305c-.561.215-.789.596-1.396.687a2.285 2.285 0 0 1-1.594-.465 3.19 3.19 0 0 0 .41.998 3.536 3.536 0 0 0 2.27 1.502A3.643 3.643 0 0 0 16 13.157a3.632 3.632 0 0 0 2.927.606Z"></path></svg>