<svg xmlns="http://www.w3.org/2000/svg" data-name="Layer 1" viewBox="0 0 512 512" id="indian-woman"><path fill="#3b3f4d" d="M161.171 273.772V102.209A94.828 94.828 0 0 1 256 7.38a94.828 94.828 0 0 1 94.829 94.829v171.563"></path><path fill="#313440" d="M256 7.38q-4.81 0-9.5.473a94.839 94.839 0 0 1 85.329 94.356v171.563h19V102.209A94.829 94.829 0 0 0 256 7.38Z"></path><path fill="#ff8e66" d="M170.7 455.27h170.6V512H170.7z"></path><path fill="#ff8e66" d="m437.28 453.87-20.54-70.39-19.77-67.78a79.984 79.984 0 0 0-76.59-56.93h-7.88a24.02 24.02 0 0 1-24-24v-13.22h-65v13.22a24.026 24.026 0 0 1-24 24h-7.87a79.993 79.993 0 0 0-76.6 56.93L74.72 453.87a30.002 30.002 0 0 0 31.98 38.24l124.84-13.34 2.11-.22a25.002 25.002 0 0 0 21.57-18.68 24.742 24.742 0 0 0 .78-6.18 25.005 25.005 0 0 0 22.35 24.86l13.83 1.48 113.12 12.08a29.985 29.985 0 0 0 12.07-1.15l.58-.18c.1-.03.21-.06.31-.1.52-.18 1.03-.37 1.53-.58.01 0 .01 0 .02-.01a30.231 30.231 0 0 0 15.46-14.28c.23-.45.45-.9.65-1.36.13-.3.26-.6.38-.9.12-.3.24-.61.36-.91q.18-.465.33-.93a29.73 29.73 0 0 0 .29-17.84ZM170.7 440.83l-39.71 2.48 21.19-55.88c.76 2.1 3.99 12.92 5.12 15.04a51.213 51.213 0 0 0 13.4 15.98Zm171.73 2.48v-31.95s11.55-5.64 13.28-8.93c.52-.99 2.88-17.96 3.32-18.95l21.98 59.83Z"></path><path fill="#ff7c4e" d="M233.937 453.69a24.742 24.742 0 0 1-.78 6.18 25.002 25.002 0 0 1-21.57 18.68L94.852 491.02a29.943 29.943 0 0 0 11.848 1.09l126.95-13.559a24.88 24.88 0 0 0 11.322-4.147 24.973 24.973 0 0 1-11.035-20.713zm203.343.18-20.54-70.39-19.77-67.78a79.985 79.985 0 0 0-76.59-56.93h-7.88a24.02 24.02 0 0 1-24-24v-13.22h-22.063v13.22a24.02 24.02 0 0 0 24 24h7.88a79.985 79.985 0 0 1 76.59 56.93l19.77 67.78 20.54 70.39a29.73 29.73 0 0 1-.29 17.84q-.15.465-.33.93c-.12.3-.24.61-.36.91-.12.3-.25.6-.38.9-.2.46-.42.91-.65 1.36a30.231 30.231 0 0 1-15.46 14.28c-.01.01-.01.01-.02.01-.5.21-1.01.4-1.53.58-.1.04-.21.07-.31.1l-.58.18c-.07.022-.142.039-.212.06l10.205 1.09a29.985 29.985 0 0 0 12.07-1.15l.58-.18c.1-.03.21-.06.31-.1.52-.18 1.03-.37 1.53-.58.01 0 .01 0 .02-.01a30.231 30.231 0 0 0 15.46-14.28c.23-.45.45-.9.65-1.36.13-.3.26-.6.38-.9.12-.3.24-.61.36-.91q.18-.465.33-.93a29.73 29.73 0 0 0 .29-17.84z"></path><path fill="#3ce568" d="m366.52 273.42-6.11 14.92a79.884 79.884 0 0 0-41.28-26.81l1.24-2.76h.01a79.899 79.899 0 0 1 46.14 14.65Z"></path><path fill="#ffc166" d="M311 126.62h16a24 24 0 0 1 24 24 24 24 0 0 1-24 24h-16v-48zm-110 1-16-1a24 24 0 0 0-24 24 24 24 0 0 0 24 24l16 1"></path><path fill="#ff7c4e" d="m374.28 279.66-82.1 200.37-12.32 30.07h-62.42l14.1-31.33 98.78-219.38a79.965 79.965 0 0 1 43.96 20.27Z"></path><path fill="#ff7c4e" d="M361.19 383.48c-.11 1.39-.28 2.81-.53 4.25a48.112 48.112 0 0 1-3.51 11.74c-.44.99-.92 1.97-1.44 2.96a49.088 49.088 0 0 1-5.82 8.69 53.072 53.072 0 0 1-15 12.29 52.76 52.76 0 0 1-3.61 1.81 7.503 7.503 0 0 1-6.21-13.66 36.959 36.959 0 0 0 17.37-16.11c6.07-11.53 3.88-23.14 1.91-29.26 0-.01-.01-.02-.01-.03a36.04 36.04 0 0 0-1.49-3.9c-.05-.11-.1-.22-.14-.33a.562.562 0 0 1-.04-.12 7.494 7.494 0 0 1 13.82-5.78c.05.11.1.23.16.36.41.91 1.02 2.41 1.68 4.37a57.9 57.9 0 0 1 2.86 22.72zM256 455.27v7.23a25.005 25.005 0 0 1-22.35 24.86l-62.95 6.72v-38.81zm0 0v7.23a25.005 25.005 0 0 0 22.35 24.86l62.95 6.72v-38.81z"></path><path fill="#ffc97a" d="m301.75 256.22-.41.38-25.83 25.64a27.692 27.692 0 0 1-39.02 0l-25.83-25.64-.12-.53a23.948 23.948 0 0 0 12.96-21.3v-13.22h65v13.22a23.96 23.96 0 0 0 13.25 21.45Z"></path><path fill="#ffe966" d="M366.52 273.42 268.765 512h-62.418L320.37 258.77h.01a79.899 79.899 0 0 1 46.14 14.65Z"></path><path fill="#ffe236" d="m366.52 273.42-6.11 14.92a79.884 79.884 0 0 0-41.28-26.81l1.24-2.76h.01a79.899 79.899 0 0 1 46.14 14.65Z"></path><path fill="#ff7c4e" d="M191.63 421.53a7.548 7.548 0 0 1-9.95 3.68 54.789 54.789 0 0 1-10.98-6.76 51.213 51.213 0 0 1-13.4-15.98 48.674 48.674 0 0 1-2.82-6.34c-6.98-19.15.09-36.9 1.74-40.58a7.498 7.498 0 1 1 13.69 6.12c-1.32 2.96-7.51 18.49.63 33.74a37.658 37.658 0 0 0 17.42 16.17 7.503 7.503 0 0 1 3.67 9.95Z"></path><path fill="#ffcd85" d="M255.128 236.157c-36.089-.468-64.799-30.552-64.799-66.644v-47.856a18.327 18.327 0 0 1 18.183-18.3 46.925 46.925 0 0 0 24.102-6.803c19.779-12.01 22.528-33.248 22.805-35.728.646 2.936 6.08 25.793 28.453 36.597a50.969 50.969 0 0 0 20.104 5.004 18.365 18.365 0 0 1 17.695 18.293v49.772a65.671 65.671 0 0 1-66.543 65.665Z"></path><path fill="#ffc570" d="M303.976 102.427a50.967 50.967 0 0 1-20.104-5.004c-22.373-10.804-27.807-33.661-28.453-36.597a51.45 51.45 0 0 1-6.572 19.114 50.41 50.41 0 0 0 40.129 22.487 18.365 18.365 0 0 1 17.695 18.293v49.772a65.666 65.666 0 0 1-58.237 65.234 65.667 65.667 0 0 0 73.237-65.234V120.72a18.365 18.365 0 0 0-17.695-18.293Z"></path><circle cx="256" cy="122.619" r="5" fill="#f66"></circle><path fill="#ff4e4e" d="M256 117.62a4.96 4.96 0 0 0-1.749.33 4.977 4.977 0 0 1 0 9.338 4.993 4.993 0 1 0 1.749-9.669Z"></path><ellipse cx="225.133" cy="149.452" fill="#4a4f60" rx="5" ry="8.811"></ellipse><ellipse cx="286.867" cy="149.452" fill="#4a4f60" rx="5" ry="8.811"></ellipse><path fill="#ffc166" d="M257.504 205.641h-.093a17.66 17.66 0 0 1-12.248-5.117 5 5 0 1 1 7.07-7.07 7.668 7.668 0 0 0 5.23 2.187 7.877 7.877 0 0 0 5.308-2.186 5 5 0 0 1 7.074 7.068 17.641 17.641 0 0 1-12.341 5.118Z"></path><path fill="#ffcd85" d="M256 368.52v85.17a25.005 25.005 0 0 1-22.35 24.86L106.7 492.11l20.56-41.31 3.73-7.49 4.1-.26 35.61-2.22 14.02-.88 28.68-1.79 8.48-26.61a56.295 56.295 0 0 1 13.85-22.76zm0 0v85.17a25.005 25.005 0 0 0 22.35 24.86l126.951 13.56-20.56-41.31-3.73-7.49-4.1-.26-35.61-2.22-14.02-.88-28.68-1.79-8.48-26.61a56.294 56.294 0 0 0-13.85-22.76z"></path><path fill="#ffc570" d="M285.966 478.55a25.005 25.005 0 0 1-22.35-24.86v-77.555l-7.615-7.615v85.17a25.005 25.005 0 0 0 22.35 24.86Z"></path></svg>