<?xml version="1.0" encoding="utf-8"?><!-- Uploaded to: SVG Repo, www.svgrepo.com, Generator: SVG Repo Mixer Tools -->
<svg fill="#000000" width="800px" height="800px" viewBox="0 -1.5 44 44" xmlns="http://www.w3.org/2000/svg">
  <path id="_39.Heart" data-name="39.Heart" d="M24.8,43.648,24,44l-.8-.352C12.862,37.313,2,22.893,2,14.884A12.008,12.008,0,0,1,24,8.351a12.008,12.008,0,0,1,22,6.533C46,22.893,35.138,37.313,24.8,43.648ZM34,4.993a10.006,10.006,0,0,0-8.335,4.46L24,11.946,22.335,9.452A10.007,10.007,0,0,0,4,14.884C4,21.948,14.234,35.692,24,41.8c9.766-6.109,20-19.852,20-26.907A10,10,0,0,0,34,4.993Z" transform="translate(-2 -3.002)" fill-rule="evenodd" stroke="black" stroke-width="0.5"/>
</svg>